<?xml version="1.0" standalone="no"?>
<!DOCTYPE svg PUBLIC "-//W3C//DTD SVG 20010904//EN"
 "http://www.w3.org/TR/2001/REC-SVG-20010904/DTD/svg10.dtd">
<svg version="1.0" xmlns="http://www.w3.org/2000/svg"
 width="512.000000pt" height="512.000000pt" viewBox="0 0 512.000000 512.000000"
 preserveAspectRatio="xMidYMid meet">
<metadata>
Created by potrace 1.14, written by Peter Selinger 2001-2017
</metadata>
<g transform="translate(0.000000,512.000000) scale(0.100000,-0.100000)"
fill="#000000" stroke="none">
<path d="M0 2560 l0 -2560 2560 0 2560 0 0 2560 0 2560 -2560 0 -2560 0 0
-2560z m2080 1355 c18 -22 9 -28 -105 -65 -210 -69 -404 -161 -560 -266 -125
-84 -139 -100 -50 -56 269 132 525 208 840 248 160 21 517 23 660 5 262 -33
576 -126 788 -232 138 -69 137 -58 -1 34 -148 99 -386 212 -572 272 -75 24
-75 24 -48 52 22 23 27 25 93 18 227 -21 525 -133 725 -271 l84 -59 68 -153
c120 -271 217 -566 277 -839 53 -246 91 -547 91 -730 l0 -91 -197 -199 c-269
-270 -458 -419 -646 -508 -184 -87 -265 -87 -537 3 -245 82 -293 92 -430 92
-133 0 -218 -19 -470 -103 -145 -48 -161 -51 -255 -51 -90 0 -107 3 -174 31
-219 94 -553 356 -820 643 l-91 99 0 88 c0 179 38 482 91 726 60 273 157 568
277 839 l68 153 84 58 c186 128 453 235 665 266 95 14 131 13 145 -4z"/>
<path d="M1380 2661 l0 -60 43 -3 42 -3 5 -60 5 -60 48 -3 47 -3 0 -59 0 -59
43 -3 42 -3 5 -60 5 -60 45 -5 45 -5 3 -62 3 -63 194 0 195 0 0 64 0 65 48 3
47 3 5 60 5 60 43 3 42 3 0 59 0 59 38 3 37 3 5 60 5 60 129 3 c90 2 132 -1
137 -9 4 -6 4 -29 2 -50 -7 -49 9 -69 53 -69 l34 0 0 -60 0 -60 39 0 c46 0 56
-12 52 -57 -5 -59 5 -73 55 -73 l44 0 0 -65 0 -65 195 0 194 0 3 63 3 62 45 5
45 5 5 60 5 60 43 3 42 3 0 59 0 59 48 3 47 3 3 63 3 62 44 0 45 0 0 60 0 60
-1180 0 -1180 0 0 -59z m298 -128 l3 -63 44 0 45 0 0 66 0 65 48 -3 47 -3 3
-62 3 -63 44 0 45 0 0 -60 0 -60 34 0 c59 0 66 -7 66 -65 0 -61 -14 -78 -62
-73 l-33 3 -3 63 -3 62 -44 0 -45 0 0 -54 c0 -62 -14 -79 -62 -74 l-33 3 -3
62 -3 62 -47 3 -47 3 -3 63 -3 62 -44 0 -45 0 0 66 0 65 48 -3 47 -3 3 -62z
m1212 2 l5 -60 42 -3 42 -3 3 63 3 63 45 0 45 0 5 -60 5 -60 42 -3 42 -3 3
-57 3 -57 45 -5 45 -5 3 -62 c3 -60 2 -63 -23 -69 -14 -3 -36 -3 -50 0 -23 6
-25 11 -25 66 l0 60 -45 0 -45 0 0 -60 c0 -55 -2 -60 -25 -66 -14 -3 -36 -3
-50 0 -23 6 -25 11 -25 66 l0 59 -42 3 -43 3 -3 63 -3 62 -49 0 -50 0 0 58 c0
32 3 62 7 66 4 4 25 6 48 4 l40 -3 5 -60z"/>
<path d="M1770 2410 l0 -60 45 0 45 0 0 60 0 60 -45 0 -45 0 0 -60z"/>
<path d="M2982 2413 l3 -58 48 -3 47 -3 0 60 0 61 -50 0 -51 0 3 -57z"/>
<path d="M2225 1805 c-149 -29 -305 -110 -434 -227 -69 -63 -119 -88 -175 -88
-63 0 -95 29 -104 95 -6 44 -10 50 -33 53 -45 5 -59 -20 -59 -106 1 -161 74
-230 295 -279 112 -25 378 -22 480 5 112 30 229 91 303 157 l62 57 63 -57 c73
-66 190 -127 302 -157 102 -27 368 -30 480 -5 221 49 294 118 295 279 0 84
-12 108 -55 108 -30 0 -39 -15 -40 -64 -2 -54 -39 -86 -101 -86 -56 0 -106 25
-175 88 -184 166 -437 265 -596 231 -59 -12 -93 -38 -150 -114 l-23 -30 -22
30 c-56 74 -92 102 -146 114 -64 13 -77 13 -167 -4z"/>
</g>
</svg>
